<mxfile host="app.diagrams.net" agent="Mozilla/5.0 (Macintosh; Intel Mac OS X 10_15_7) AppleWebKit/605.1.15 (KHTML, like Gecko) Version/18.0.1 Safari/605.1.15" version="24.8.3" pages="2">
  <diagram name="Page-1" id="xyLNlELbTk6fqaLagCfY">
    <mxGraphModel dx="2417" dy="1078" grid="1" gridSize="10" guides="1" tooltips="1" connect="1" arrows="1" fold="1" page="1" pageScale="1" pageWidth="827" pageHeight="1169" math="0" shadow="0">
      <root>
        <mxCell id="0" />
        <mxCell id="1" parent="0" />
        <mxCell id="knGRUfmPTDJI8E9dj8fm-1" value="Diagramme de séquence" style="endArrow=none;endSize=16;endFill=0;html=1;rounded=0;strokeWidth=2;dashed=1;" edge="1" parent="1">
          <mxGeometry width="160" relative="1" as="geometry">
            <mxPoint x="40" y="80" as="sourcePoint" />
            <mxPoint x="780" y="80" as="targetPoint" />
          </mxGeometry>
        </mxCell>
        <mxCell id="knGRUfmPTDJI8E9dj8fm-8" value="Base de données" style="shape=umlLifeline;perimeter=lifelinePerimeter;whiteSpace=wrap;html=1;container=1;dropTarget=0;collapsible=0;recursiveResize=0;outlineConnect=0;portConstraint=eastwest;newEdgeStyle={&quot;curved&quot;:0,&quot;rounded&quot;:0};strokeWidth=2;fillColor=#f8cecc;strokeColor=#b85450;" vertex="1" parent="1">
          <mxGeometry x="484" y="130" width="100" height="990" as="geometry" />
        </mxCell>
        <mxCell id="knGRUfmPTDJI8E9dj8fm-38" value="" style="html=1;points=[[0,0,0,0,5],[0,1,0,0,-5],[1,0,0,0,5],[1,1,0,0,-5]];perimeter=orthogonalPerimeter;outlineConnect=0;targetShapes=umlLifeline;portConstraint=eastwest;newEdgeStyle={&quot;curved&quot;:0,&quot;rounded&quot;:0};fillColor=#fff2cc;strokeColor=#d6b656;" vertex="1" parent="knGRUfmPTDJI8E9dj8fm-8">
          <mxGeometry x="45" y="130" width="10" height="80" as="geometry" />
        </mxCell>
        <mxCell id="knGRUfmPTDJI8E9dj8fm-39" value="" style="html=1;points=[[0,0,0,0,5],[0,1,0,0,-5],[1,0,0,0,5],[1,1,0,0,-5]];perimeter=orthogonalPerimeter;outlineConnect=0;targetShapes=umlLifeline;portConstraint=eastwest;newEdgeStyle={&quot;curved&quot;:0,&quot;rounded&quot;:0};fillColor=#fff2cc;strokeColor=#d6b656;" vertex="1" parent="knGRUfmPTDJI8E9dj8fm-8">
          <mxGeometry x="45" y="518" width="10" height="80" as="geometry" />
        </mxCell>
        <mxCell id="knGRUfmPTDJI8E9dj8fm-9" value="Service de recherche" style="shape=umlLifeline;perimeter=lifelinePerimeter;whiteSpace=wrap;html=1;container=1;dropTarget=0;collapsible=0;recursiveResize=0;outlineConnect=0;portConstraint=eastwest;newEdgeStyle={&quot;curved&quot;:0,&quot;rounded&quot;:0};strokeWidth=2;fillColor=#f8cecc;strokeColor=#b85450;" vertex="1" parent="1">
          <mxGeometry x="754" y="130" width="100" height="990" as="geometry" />
        </mxCell>
        <mxCell id="knGRUfmPTDJI8E9dj8fm-40" value="" style="html=1;points=[[0,0,0,0,5],[0,1,0,0,-5],[1,0,0,0,5],[1,1,0,0,-5]];perimeter=orthogonalPerimeter;outlineConnect=0;targetShapes=umlLifeline;portConstraint=eastwest;newEdgeStyle={&quot;curved&quot;:0,&quot;rounded&quot;:0};fillColor=#fff2cc;strokeColor=#d6b656;" vertex="1" parent="knGRUfmPTDJI8E9dj8fm-9">
          <mxGeometry x="45" y="810" width="10" height="80" as="geometry" />
        </mxCell>
        <mxCell id="knGRUfmPTDJI8E9dj8fm-11" value="Service d&#39;authentification" style="shape=umlLifeline;perimeter=lifelinePerimeter;whiteSpace=wrap;html=1;container=1;dropTarget=0;collapsible=0;recursiveResize=0;outlineConnect=0;portConstraint=eastwest;newEdgeStyle={&quot;curved&quot;:0,&quot;rounded&quot;:0};strokeWidth=2;fillColor=#f8cecc;strokeColor=#b85450;" vertex="1" parent="1">
          <mxGeometry x="214" y="130" width="100" height="980" as="geometry" />
        </mxCell>
        <mxCell id="knGRUfmPTDJI8E9dj8fm-12" value="" style="shape=umlLifeline;perimeter=lifelinePerimeter;whiteSpace=wrap;html=1;container=1;dropTarget=0;collapsible=0;recursiveResize=0;outlineConnect=0;portConstraint=eastwest;newEdgeStyle={&quot;curved&quot;:0,&quot;rounded&quot;:0};participant=umlActor;strokeWidth=2;fillColor=#d5e8d4;strokeColor=#82b366;" vertex="1" parent="1">
          <mxGeometry x="-16" y="130" width="20" height="970" as="geometry" />
        </mxCell>
        <mxCell id="knGRUfmPTDJI8E9dj8fm-14" value="Remplir le formulaire d&#39;inscription" style="html=1;verticalAlign=bottom;endArrow=block;curved=0;rounded=0;" edge="1" parent="1">
          <mxGeometry width="80" relative="1" as="geometry">
            <mxPoint x="-5.996470588235589" y="260" as="sourcePoint" />
            <mxPoint x="263.18" y="260" as="targetPoint" />
          </mxGeometry>
        </mxCell>
        <mxCell id="knGRUfmPTDJI8E9dj8fm-15" value="Vérifier si l&#39;adresse mail existe" style="html=1;verticalAlign=bottom;endArrow=block;curved=0;rounded=0;" edge="1" parent="1">
          <mxGeometry width="80" relative="1" as="geometry">
            <mxPoint x="264.0035294117644" y="280" as="sourcePoint" />
            <mxPoint x="533.1800000000001" y="280" as="targetPoint" />
          </mxGeometry>
        </mxCell>
        <mxCell id="knGRUfmPTDJI8E9dj8fm-17" value="Résultat de vérification" style="html=1;verticalAlign=bottom;endArrow=open;dashed=1;endSize=8;curved=0;rounded=0;" edge="1" parent="1">
          <mxGeometry relative="1" as="geometry">
            <mxPoint x="533.1800000000005" y="310" as="sourcePoint" />
            <mxPoint x="264.0035294117649" y="310" as="targetPoint" />
          </mxGeometry>
        </mxCell>
        <mxCell id="knGRUfmPTDJI8E9dj8fm-18" value="Afficher message d&#39;erreur (email existant)" style="html=1;verticalAlign=bottom;endArrow=open;endSize=8;curved=0;rounded=0;" edge="1" parent="1">
          <mxGeometry relative="1" as="geometry">
            <mxPoint x="263.18" y="370" as="sourcePoint" />
            <mxPoint x="-5.996470588235589" y="370" as="targetPoint" />
          </mxGeometry>
        </mxCell>
        <mxCell id="knGRUfmPTDJI8E9dj8fm-19" value="Enregister les informations utilisateur" style="html=1;verticalAlign=bottom;endArrow=block;curved=0;rounded=0;" edge="1" parent="1">
          <mxGeometry width="80" relative="1" as="geometry">
            <mxPoint x="264.0035294117644" y="420" as="sourcePoint" />
            <mxPoint x="533.1800000000001" y="420" as="targetPoint" />
          </mxGeometry>
        </mxCell>
        <mxCell id="knGRUfmPTDJI8E9dj8fm-20" value="Confirmation d&#39;enregistrement" style="html=1;verticalAlign=bottom;endArrow=open;dashed=1;endSize=8;curved=0;rounded=0;" edge="1" parent="1">
          <mxGeometry relative="1" as="geometry">
            <mxPoint x="533.1800000000005" y="460" as="sourcePoint" />
            <mxPoint x="264.0035294117649" y="460" as="targetPoint" />
          </mxGeometry>
        </mxCell>
        <mxCell id="knGRUfmPTDJI8E9dj8fm-21" value="Afficher message de succès" style="html=1;verticalAlign=bottom;endArrow=open;endSize=8;curved=0;rounded=0;" edge="1" parent="1">
          <mxGeometry relative="1" as="geometry">
            <mxPoint x="263.18" y="490" as="sourcePoint" />
            <mxPoint x="-5.996470588235589" y="490" as="targetPoint" />
          </mxGeometry>
        </mxCell>
        <mxCell id="knGRUfmPTDJI8E9dj8fm-22" value="Remplir le formulaire de connexion" style="html=1;verticalAlign=bottom;endArrow=block;curved=0;rounded=0;" edge="1" parent="1">
          <mxGeometry width="80" relative="1" as="geometry">
            <mxPoint x="-5.996470588235589" y="630" as="sourcePoint" />
            <mxPoint x="263.18" y="630" as="targetPoint" />
          </mxGeometry>
        </mxCell>
        <mxCell id="knGRUfmPTDJI8E9dj8fm-23" value="Vérifier les identifiants (email et mot de passe)" style="html=1;verticalAlign=bottom;endArrow=block;curved=0;rounded=0;" edge="1" parent="1">
          <mxGeometry width="80" relative="1" as="geometry">
            <mxPoint x="264.0035294117644" y="670" as="sourcePoint" />
            <mxPoint x="533.1800000000001" y="670" as="targetPoint" />
          </mxGeometry>
        </mxCell>
        <mxCell id="knGRUfmPTDJI8E9dj8fm-24" value="Résultat de la vérification" style="html=1;verticalAlign=bottom;endArrow=open;dashed=1;endSize=8;curved=0;rounded=0;" edge="1" parent="1">
          <mxGeometry relative="1" as="geometry">
            <mxPoint x="533.1800000000005" y="700" as="sourcePoint" />
            <mxPoint x="264.0035294117649" y="700" as="targetPoint" />
          </mxGeometry>
        </mxCell>
        <mxCell id="knGRUfmPTDJI8E9dj8fm-25" value="Authentification réussi" style="html=1;verticalAlign=bottom;endArrow=open;endSize=8;curved=0;rounded=0;" edge="1" parent="1">
          <mxGeometry relative="1" as="geometry">
            <mxPoint x="263.18" y="740" as="sourcePoint" />
            <mxPoint x="-5.996470588235589" y="740" as="targetPoint" />
          </mxGeometry>
        </mxCell>
        <mxCell id="knGRUfmPTDJI8E9dj8fm-26" value="Afficher message d&#39;erreur" style="html=1;verticalAlign=bottom;endArrow=open;endSize=8;curved=0;rounded=0;" edge="1" parent="1">
          <mxGeometry relative="1" as="geometry">
            <mxPoint x="263.18" y="820" as="sourcePoint" />
            <mxPoint x="-5.996470588235589" y="820" as="targetPoint" />
          </mxGeometry>
        </mxCell>
        <mxCell id="knGRUfmPTDJI8E9dj8fm-27" value="[Identifiants correct]" style="text;html=1;align=center;verticalAlign=middle;resizable=0;points=[];autosize=1;strokeColor=none;fillColor=none;" vertex="1" parent="1">
          <mxGeometry x="-6" y="698" width="130" height="30" as="geometry" />
        </mxCell>
        <mxCell id="knGRUfmPTDJI8E9dj8fm-28" value="[Identifiants incorrect]" style="text;html=1;align=center;verticalAlign=middle;resizable=0;points=[];autosize=1;strokeColor=none;fillColor=none;" vertex="1" parent="1">
          <mxGeometry x="-11" y="780" width="140" height="30" as="geometry" />
        </mxCell>
        <mxCell id="knGRUfmPTDJI8E9dj8fm-29" value="Saisir le nom du produit" style="html=1;verticalAlign=bottom;endArrow=block;curved=0;rounded=0;" edge="1" parent="1" target="knGRUfmPTDJI8E9dj8fm-9">
          <mxGeometry width="80" relative="1" as="geometry">
            <mxPoint x="-5.996470588235589" y="910" as="sourcePoint" />
            <mxPoint x="263.18" y="910" as="targetPoint" />
          </mxGeometry>
        </mxCell>
        <mxCell id="knGRUfmPTDJI8E9dj8fm-30" value="Recherche des produits correspondants" style="html=1;verticalAlign=bottom;endArrow=open;endSize=8;curved=0;rounded=0;" edge="1" parent="1">
          <mxGeometry relative="1" as="geometry">
            <mxPoint x="803.1800000000001" y="950" as="sourcePoint" />
            <mxPoint x="534.0035294117644" y="950" as="targetPoint" />
          </mxGeometry>
        </mxCell>
        <mxCell id="knGRUfmPTDJI8E9dj8fm-31" value="Liste des produits" style="html=1;verticalAlign=bottom;endArrow=none;dashed=1;endSize=8;curved=0;rounded=0;endFill=0;startArrow=classic;startFill=1;" edge="1" parent="1">
          <mxGeometry relative="1" as="geometry">
            <mxPoint x="803.1800000000005" y="1000" as="sourcePoint" />
            <mxPoint x="534.0035294117649" y="1000" as="targetPoint" />
          </mxGeometry>
        </mxCell>
        <mxCell id="knGRUfmPTDJI8E9dj8fm-32" value="Afficher les résultats" style="html=1;verticalAlign=bottom;endArrow=open;endSize=8;curved=0;rounded=0;" edge="1" parent="1">
          <mxGeometry relative="1" as="geometry">
            <mxPoint x="803.1800000000004" y="1059" as="sourcePoint" />
            <mxPoint x="-5.996470588235589" y="1059" as="targetPoint" />
          </mxGeometry>
        </mxCell>
        <mxCell id="knGRUfmPTDJI8E9dj8fm-33" value="[Email existant]" style="text;html=1;align=center;verticalAlign=middle;resizable=0;points=[];autosize=1;strokeColor=none;fillColor=none;" vertex="1" parent="1">
          <mxGeometry x="14" y="330" width="100" height="30" as="geometry" />
        </mxCell>
        <mxCell id="knGRUfmPTDJI8E9dj8fm-34" value="[Email non existant]" style="text;html=1;align=center;verticalAlign=middle;resizable=0;points=[];autosize=1;strokeColor=none;fillColor=none;" vertex="1" parent="1">
          <mxGeometry x="-6" y="450" width="130" height="30" as="geometry" />
        </mxCell>
        <mxCell id="knGRUfmPTDJI8E9dj8fm-35" value="&lt;font style=&quot;font-size: 18px;&quot;&gt;Inscription&lt;/font&gt;" style="endArrow=none;endSize=16;endFill=0;html=1;rounded=0;strokeWidth=4;fillColor=#f8cecc;strokeColor=#B85450;" edge="1" parent="1">
          <mxGeometry width="160" relative="1" as="geometry">
            <mxPoint x="-66" y="220" as="sourcePoint" />
            <mxPoint x="904" y="220" as="targetPoint" />
          </mxGeometry>
        </mxCell>
        <mxCell id="knGRUfmPTDJI8E9dj8fm-36" value="&lt;font style=&quot;font-size: 18px;&quot;&gt;Connexion&lt;/font&gt;" style="endArrow=none;endSize=16;endFill=0;html=1;rounded=0;strokeWidth=4;fillColor=#f8cecc;strokeColor=#B85450;" edge="1" parent="1">
          <mxGeometry width="160" relative="1" as="geometry">
            <mxPoint x="-77" y="570" as="sourcePoint" />
            <mxPoint x="893" y="570" as="targetPoint" />
          </mxGeometry>
        </mxCell>
        <mxCell id="knGRUfmPTDJI8E9dj8fm-37" value="&lt;font style=&quot;font-size: 18px;&quot;&gt;Recherche de produit&lt;/font&gt;" style="endArrow=none;endSize=16;endFill=0;html=1;rounded=0;strokeWidth=4;fillColor=#f8cecc;strokeColor=#B85450;" edge="1" parent="1">
          <mxGeometry width="160" relative="1" as="geometry">
            <mxPoint x="-77" y="860" as="sourcePoint" />
            <mxPoint x="893" y="860" as="targetPoint" />
          </mxGeometry>
        </mxCell>
      </root>
    </mxGraphModel>
  </diagram>
  <diagram id="NeaIUq9r-xywL4kyUEaD" name="Page-2">
    <mxGraphModel dx="954" dy="647" grid="1" gridSize="10" guides="1" tooltips="1" connect="1" arrows="1" fold="1" page="1" pageScale="1" pageWidth="827" pageHeight="1169" math="0" shadow="0">
      <root>
        <mxCell id="0" />
        <mxCell id="1" parent="0" />
      </root>
    </mxGraphModel>
  </diagram>
</mxfile>
